<mxfile host="app.diagrams.net" modified="2021-01-26T01:29:34.695Z" agent="5.0 (Macintosh; Intel Mac OS X 10_15_6) AppleWebKit/537.36 (KHTML, like Gecko) Chrome/87.0.4280.141 Safari/537.36" etag="P6ROxnMAAWHXa9DOq5Cu" version="14.2.6" type="github">
  <diagram id="C5RBs43oDa-KdzZeNtuy" name="Page-1">
    <mxGraphModel dx="2253" dy="650" grid="1" gridSize="10" guides="1" tooltips="1" connect="1" arrows="1" fold="1" page="1" pageScale="1" pageWidth="827" pageHeight="1169" math="0" shadow="0">
      <root>
        <mxCell id="WIyWlLk6GJQsqaUBKTNV-0" />
        <mxCell id="WIyWlLk6GJQsqaUBKTNV-1" parent="WIyWlLk6GJQsqaUBKTNV-0" />
        <mxCell id="5IzvyPoYenIN4oYvT-L3-0" value="" style="whiteSpace=wrap;html=1;dashed=1;" parent="WIyWlLk6GJQsqaUBKTNV-1" vertex="1">
          <mxGeometry x="180" y="320" width="430" height="60" as="geometry" />
        </mxCell>
        <mxCell id="5IzvyPoYenIN4oYvT-L3-1" value="" style="whiteSpace=wrap;html=1;" parent="WIyWlLk6GJQsqaUBKTNV-1" vertex="1">
          <mxGeometry x="180" y="260" width="430" height="60" as="geometry" />
        </mxCell>
        <mxCell id="5IzvyPoYenIN4oYvT-L3-2" value="" style="whiteSpace=wrap;html=1;" parent="WIyWlLk6GJQsqaUBKTNV-1" vertex="1">
          <mxGeometry x="180" y="200" width="430" height="60" as="geometry" />
        </mxCell>
        <mxCell id="5IzvyPoYenIN4oYvT-L3-3" value="主模块" style="whiteSpace=wrap;html=1;" parent="WIyWlLk6GJQsqaUBKTNV-1" vertex="1">
          <mxGeometry x="190" y="210" width="90" height="40" as="geometry" />
        </mxCell>
        <mxCell id="5IzvyPoYenIN4oYvT-L3-4" value="&lt;span&gt;业务2&lt;/span&gt;" style="whiteSpace=wrap;html=1;" parent="WIyWlLk6GJQsqaUBKTNV-1" vertex="1">
          <mxGeometry x="290" y="210" width="90" height="40" as="geometry" />
        </mxCell>
        <mxCell id="5IzvyPoYenIN4oYvT-L3-5" value="&lt;span&gt;业务3&lt;/span&gt;" style="whiteSpace=wrap;html=1;" parent="WIyWlLk6GJQsqaUBKTNV-1" vertex="1">
          <mxGeometry x="390" y="210" width="90" height="40" as="geometry" />
        </mxCell>
        <mxCell id="5IzvyPoYenIN4oYvT-L3-6" value="&lt;span&gt;业务...&lt;/span&gt;" style="whiteSpace=wrap;html=1;" parent="WIyWlLk6GJQsqaUBKTNV-1" vertex="1">
          <mxGeometry x="500" y="210" width="90" height="40" as="geometry" />
        </mxCell>
        <mxCell id="5IzvyPoYenIN4oYvT-L3-7" value="用来C端承载下沉" style="text;html=1;align=center;verticalAlign=middle;resizable=0;points=[];autosize=1;" parent="WIyWlLk6GJQsqaUBKTNV-1" vertex="1">
          <mxGeometry x="55" y="280" width="110" height="20" as="geometry" />
        </mxCell>
        <mxCell id="5IzvyPoYenIN4oYvT-L3-8" value="BC端下沉基础" style="text;html=1;align=center;verticalAlign=middle;resizable=0;points=[];autosize=1;" parent="WIyWlLk6GJQsqaUBKTNV-1" vertex="1">
          <mxGeometry x="65" y="340" width="90" height="20" as="geometry" />
        </mxCell>
        <mxCell id="5IzvyPoYenIN4oYvT-L3-9" value="Pins" style="text;html=1;align=center;verticalAlign=middle;resizable=0;points=[];autosize=1;" parent="WIyWlLk6GJQsqaUBKTNV-1" vertex="1">
          <mxGeometry x="80" y="220" width="40" height="20" as="geometry" />
        </mxCell>
        <mxCell id="5IzvyPoYenIN4oYvT-L3-10" value="Data" style="rounded=0;whiteSpace=wrap;html=1;dashed=1;" parent="WIyWlLk6GJQsqaUBKTNV-1" vertex="1">
          <mxGeometry x="450" y="270" width="110" height="40" as="geometry" />
        </mxCell>
        <mxCell id="5IzvyPoYenIN4oYvT-L3-11" value="Base" style="whiteSpace=wrap;html=1;" parent="WIyWlLk6GJQsqaUBKTNV-1" vertex="1">
          <mxGeometry x="260" y="270" width="90" height="40" as="geometry" />
        </mxCell>
        <mxCell id="5IzvyPoYenIN4oYvT-L3-12" value="1.业务规划、业务拆分" style="text;html=1;align=center;verticalAlign=middle;resizable=0;points=[];autosize=1;" parent="WIyWlLk6GJQsqaUBKTNV-1" vertex="1">
          <mxGeometry x="70" y="430" width="130" height="20" as="geometry" />
        </mxCell>
        <mxCell id="5IzvyPoYenIN4oYvT-L3-13" value="2.业务资源文件整理（命名规范，基础资源文件下沉base-common）" style="text;html=1;align=center;verticalAlign=middle;resizable=0;points=[];autosize=1;" parent="WIyWlLk6GJQsqaUBKTNV-1" vertex="1">
          <mxGeometry x="65" y="450" width="380" height="20" as="geometry" />
        </mxCell>
        <mxCell id="5IzvyPoYenIN4oYvT-L3-15" value="主模块包含未拆分的业务逻辑" style="text;html=1;align=center;verticalAlign=middle;resizable=0;points=[];autosize=1;" parent="WIyWlLk6GJQsqaUBKTNV-1" vertex="1">
          <mxGeometry x="640" y="220" width="170" height="20" as="geometry" />
        </mxCell>
        <mxCell id="5IzvyPoYenIN4oYvT-L3-17" value="安防各端统一的Base" style="text;html=1;align=center;verticalAlign=middle;resizable=0;points=[];autosize=1;strokeColor=#000000;dashed=1;" parent="WIyWlLk6GJQsqaUBKTNV-1" vertex="1">
          <mxGeometry x="220" y="340" width="130" height="20" as="geometry" />
        </mxCell>
        <mxCell id="5IzvyPoYenIN4oYvT-L3-25" style="edgeStyle=orthogonalEdgeStyle;rounded=0;orthogonalLoop=1;jettySize=auto;html=1;exitX=0.5;exitY=1;exitDx=0;exitDy=0;" parent="WIyWlLk6GJQsqaUBKTNV-1" source="5IzvyPoYenIN4oYvT-L3-19" target="5IzvyPoYenIN4oYvT-L3-21" edge="1">
          <mxGeometry relative="1" as="geometry" />
        </mxCell>
        <mxCell id="5IzvyPoYenIN4oYvT-L3-26" value="使用api依赖" style="edgeLabel;html=1;align=center;verticalAlign=middle;resizable=0;points=[];" parent="5IzvyPoYenIN4oYvT-L3-25" vertex="1" connectable="0">
          <mxGeometry x="-0.1667" relative="1" as="geometry">
            <mxPoint as="offset" />
          </mxGeometry>
        </mxCell>
        <mxCell id="5IzvyPoYenIN4oYvT-L3-19" value="Base" style="whiteSpace=wrap;html=1;strokeColor=#000000;" parent="WIyWlLk6GJQsqaUBKTNV-1" vertex="1">
          <mxGeometry x="50" y="870" width="340" height="80" as="geometry" />
        </mxCell>
        <mxCell id="5IzvyPoYenIN4oYvT-L3-21" value="基础依赖库" style="whiteSpace=wrap;html=1;strokeColor=#000000;" parent="WIyWlLk6GJQsqaUBKTNV-1" vertex="1">
          <mxGeometry x="160" y="1070" width="120" height="60" as="geometry" />
        </mxCell>
        <mxCell id="5IzvyPoYenIN4oYvT-L3-22" value="协程、androidx...涂鸦的一些base" style="text;html=1;align=center;verticalAlign=middle;resizable=0;points=[];autosize=1;" parent="WIyWlLk6GJQsqaUBKTNV-1" vertex="1">
          <mxGeometry x="315" y="1100" width="190" height="20" as="geometry" />
        </mxCell>
        <mxCell id="5IzvyPoYenIN4oYvT-L3-23" value="Base对依赖做个收口，避免各模块重复依赖组件且版本不同的问题。&lt;br&gt;&lt;br&gt;&lt;div style=&quot;text-align: left&quot;&gt;&lt;span&gt;不pin入主模块，用于必要业务拆分的支持&lt;/span&gt;&lt;/div&gt;" style="text;html=1;align=center;verticalAlign=middle;resizable=0;points=[];autosize=1;" parent="WIyWlLk6GJQsqaUBKTNV-1" vertex="1">
          <mxGeometry x="445" y="880" width="380" height="50" as="geometry" />
        </mxCell>
        <mxCell id="5IzvyPoYenIN4oYvT-L3-27" value="Base" style="text;html=1;align=center;verticalAlign=middle;resizable=0;points=[];autosize=1;" parent="WIyWlLk6GJQsqaUBKTNV-1" vertex="1">
          <mxGeometry x="50" y="840" width="40" height="20" as="geometry" />
        </mxCell>
        <mxCell id="REAz5d-tvxTWipJinv3c-0" value="Armed-Action&lt;br&gt;" style="text;html=1;strokeColor=none;fillColor=none;align=center;verticalAlign=middle;whiteSpace=wrap;rounded=0;" vertex="1" parent="WIyWlLk6GJQsqaUBKTNV-1">
          <mxGeometry x="30" y="1360" width="125" height="20" as="geometry" />
        </mxCell>
        <mxCell id="REAz5d-tvxTWipJinv3c-2" value="UI包" style="rounded=0;whiteSpace=wrap;html=1;" vertex="1" parent="WIyWlLk6GJQsqaUBKTNV-1">
          <mxGeometry x="-30" y="1724" width="120" height="60" as="geometry" />
        </mxCell>
        <mxCell id="REAz5d-tvxTWipJinv3c-11" style="edgeStyle=orthogonalEdgeStyle;rounded=0;orthogonalLoop=1;jettySize=auto;html=1;exitX=1;exitY=0.5;exitDx=0;exitDy=0;entryX=0.5;entryY=0;entryDx=0;entryDy=0;" edge="1" parent="WIyWlLk6GJQsqaUBKTNV-1" source="REAz5d-tvxTWipJinv3c-6" target="REAz5d-tvxTWipJinv3c-8">
          <mxGeometry relative="1" as="geometry" />
        </mxCell>
        <mxCell id="REAz5d-tvxTWipJinv3c-14" style="edgeStyle=orthogonalEdgeStyle;rounded=0;orthogonalLoop=1;jettySize=auto;html=1;exitX=0;exitY=0.5;exitDx=0;exitDy=0;entryX=0.5;entryY=0;entryDx=0;entryDy=0;" edge="1" parent="WIyWlLk6GJQsqaUBKTNV-1" source="REAz5d-tvxTWipJinv3c-6" target="REAz5d-tvxTWipJinv3c-9">
          <mxGeometry relative="1" as="geometry" />
        </mxCell>
        <mxCell id="REAz5d-tvxTWipJinv3c-6" value="逻辑" style="rounded=0;whiteSpace=wrap;html=1;" vertex="1" parent="WIyWlLk6GJQsqaUBKTNV-1">
          <mxGeometry x="360" y="1370" width="120" height="60" as="geometry" />
        </mxCell>
        <mxCell id="REAz5d-tvxTWipJinv3c-8" value="布防" style="rounded=0;whiteSpace=wrap;html=1;" vertex="1" parent="WIyWlLk6GJQsqaUBKTNV-1">
          <mxGeometry x="610" y="1600" width="120" height="60" as="geometry" />
        </mxCell>
        <mxCell id="REAz5d-tvxTWipJinv3c-9" value="撤防" style="rounded=0;whiteSpace=wrap;html=1;" vertex="1" parent="WIyWlLk6GJQsqaUBKTNV-1">
          <mxGeometry x="220" y="1610" width="120" height="60" as="geometry" />
        </mxCell>
        <mxCell id="REAz5d-tvxTWipJinv3c-15" value="Manager（Service）" style="rounded=0;whiteSpace=wrap;html=1;" vertex="1" parent="WIyWlLk6GJQsqaUBKTNV-1">
          <mxGeometry x="155" y="1754" width="605" height="60" as="geometry" />
        </mxCell>
        <mxCell id="REAz5d-tvxTWipJinv3c-18" value="撤布防逻辑可能牵扯很多，比如异常设备，如何通知？&lt;br&gt;1.讲撤布防流程的每个过程都通过api暴露出去" style="text;html=1;align=center;verticalAlign=middle;resizable=0;points=[];autosize=1;" vertex="1" parent="WIyWlLk6GJQsqaUBKTNV-1">
          <mxGeometry x="-110" y="1565" width="300" height="30" as="geometry" />
        </mxCell>
        <mxCell id="REAz5d-tvxTWipJinv3c-19" value="ArmedView" style="rounded=0;whiteSpace=wrap;html=1;" vertex="1" parent="WIyWlLk6GJQsqaUBKTNV-1">
          <mxGeometry x="530" y="2130" width="120" height="60" as="geometry" />
        </mxCell>
        <mxCell id="REAz5d-tvxTWipJinv3c-39" style="edgeStyle=orthogonalEdgeStyle;rounded=0;orthogonalLoop=1;jettySize=auto;html=1;" edge="1" parent="WIyWlLk6GJQsqaUBKTNV-1" source="REAz5d-tvxTWipJinv3c-20" target="REAz5d-tvxTWipJinv3c-23">
          <mxGeometry relative="1" as="geometry" />
        </mxCell>
        <mxCell id="REAz5d-tvxTWipJinv3c-20" value="撤布防逻辑" style="rounded=0;whiteSpace=wrap;html=1;" vertex="1" parent="WIyWlLk6GJQsqaUBKTNV-1">
          <mxGeometry x="10" y="2070" width="120" height="50" as="geometry" />
        </mxCell>
        <mxCell id="REAz5d-tvxTWipJinv3c-21" value="主要责任：&lt;br&gt;1.点击事件&lt;br&gt;2.显示当前撤布防状态&lt;br&gt;3.显示倒计时状态" style="text;html=1;align=left;verticalAlign=middle;resizable=0;points=[];autosize=1;" vertex="1" parent="WIyWlLk6GJQsqaUBKTNV-1">
          <mxGeometry x="540" y="2070" width="130" height="60" as="geometry" />
        </mxCell>
        <mxCell id="REAz5d-tvxTWipJinv3c-27" style="edgeStyle=orthogonalEdgeStyle;rounded=0;orthogonalLoop=1;jettySize=auto;html=1;exitX=1;exitY=0.5;exitDx=0;exitDy=0;" edge="1" parent="WIyWlLk6GJQsqaUBKTNV-1" source="REAz5d-tvxTWipJinv3c-23" target="REAz5d-tvxTWipJinv3c-24">
          <mxGeometry relative="1" as="geometry" />
        </mxCell>
        <mxCell id="REAz5d-tvxTWipJinv3c-23" value="Subscribe" style="rounded=0;whiteSpace=wrap;html=1;align=center;" vertex="1" parent="WIyWlLk6GJQsqaUBKTNV-1">
          <mxGeometry x="10" y="2310" width="120" height="60" as="geometry" />
        </mxCell>
        <mxCell id="REAz5d-tvxTWipJinv3c-38" style="edgeStyle=orthogonalEdgeStyle;rounded=0;orthogonalLoop=1;jettySize=auto;html=1;exitX=0.5;exitY=0;exitDx=0;exitDy=0;entryX=0.5;entryY=1;entryDx=0;entryDy=0;" edge="1" parent="WIyWlLk6GJQsqaUBKTNV-1" source="REAz5d-tvxTWipJinv3c-24" target="REAz5d-tvxTWipJinv3c-19">
          <mxGeometry relative="1" as="geometry" />
        </mxCell>
        <mxCell id="REAz5d-tvxTWipJinv3c-24" value="Observe" style="rounded=0;whiteSpace=wrap;html=1;align=center;" vertex="1" parent="WIyWlLk6GJQsqaUBKTNV-1">
          <mxGeometry x="530" y="2310" width="120" height="60" as="geometry" />
        </mxCell>
        <mxCell id="REAz5d-tvxTWipJinv3c-25" value="" style="rounded=0;whiteSpace=wrap;html=1;align=center;" vertex="1" parent="WIyWlLk6GJQsqaUBKTNV-1">
          <mxGeometry x="290" y="2720" width="120" height="60" as="geometry" />
        </mxCell>
        <mxCell id="REAz5d-tvxTWipJinv3c-30" value="发布事件：" style="text;html=1;align=center;verticalAlign=middle;resizable=0;points=[];autosize=1;" vertex="1" parent="WIyWlLk6GJQsqaUBKTNV-1">
          <mxGeometry x="20" y="2380" width="80" height="20" as="geometry" />
        </mxCell>
        <mxCell id="REAz5d-tvxTWipJinv3c-32" value="当前撤布防状态" style="whiteSpace=wrap;html=1;align=center;" vertex="1" parent="WIyWlLk6GJQsqaUBKTNV-1">
          <mxGeometry x="272.5" y="2420" width="100" height="40" as="geometry" />
        </mxCell>
        <mxCell id="REAz5d-tvxTWipJinv3c-35" value="显示倒计时" style="whiteSpace=wrap;html=1;align=center;" vertex="1" parent="WIyWlLk6GJQsqaUBKTNV-1">
          <mxGeometry x="270" y="2370" width="100" height="30" as="geometry" />
        </mxCell>
        <mxCell id="REAz5d-tvxTWipJinv3c-40" value="暴露出的一些流程，通过subscribe 发布订阅消息通知view层" style="text;html=1;align=center;verticalAlign=middle;resizable=0;points=[];autosize=1;" vertex="1" parent="WIyWlLk6GJQsqaUBKTNV-1">
          <mxGeometry x="-40" y="2230" width="330" height="20" as="geometry" />
        </mxCell>
        <mxCell id="REAz5d-tvxTWipJinv3c-41" value="ArmedView" style="rounded=0;whiteSpace=wrap;html=1;" vertex="1" parent="WIyWlLk6GJQsqaUBKTNV-1">
          <mxGeometry x="665" y="2130" width="120" height="60" as="geometry" />
        </mxCell>
        <mxCell id="REAz5d-tvxTWipJinv3c-42" value="ArmedView" style="rounded=0;whiteSpace=wrap;html=1;" vertex="1" parent="WIyWlLk6GJQsqaUBKTNV-1">
          <mxGeometry x="385" y="2130" width="120" height="60" as="geometry" />
        </mxCell>
      </root>
    </mxGraphModel>
  </diagram>
</mxfile>
